<svg height="300px" width="300px" fill="#000000" xmlns="http://www.w3.org/2000/svg" xmlns:xlink="http://www.w3.org/1999/xlink" version="1.1" x="0px" y="0px" viewBox="0 0 128 128" style="enable-background:new 0 0 128 128;" xml:space="preserve"><g><path d="M69,50c0-8.3-6.7-15-15-15s-15,6.7-15,15s6.7,15,15,15S69,58.3,69,50z M45,50c0-5,4-9,9-9s9,4,9,9s-4,9-9,9S45,55,45,50z"/><path d="M28.9,85.4l-5.1,17.1c-0.5,1.6,0.4,3.3,2,3.7c1.6,0.5,3.3-0.4,3.7-2l5.1-17.1C36.8,79.9,43.3,75,50.9,75h6.2   c7.6,0,14.1,4.9,16.3,12.1l5.1,17.1c0.4,1.3,1.6,2.1,2.9,2.1c0.3,0,0.6,0,0.9-0.1c1.6-0.5,2.5-2.1,2-3.7l-5.1-17.1   C76.2,75.6,67.4,69,57.1,69h-6.2C40.6,69,31.8,75.6,28.9,85.4z"/><path d="M110.3,124c0-1.7-1.3-3-3-3H95.5c0.3-0.9,0.5-1.9,0.5-3c0-5-4-9-9-9H73v-3c0-1.7-1.3-3-3-3s-3,1.3-3,3v3h-3   c-1.7,0-3,1.3-3,3s1.3,3,3,3h23c1.7,0,3,1.3,3,3s-1.3,3-3,3H56.5c0.3-0.9,0.5-1.9,0.5-3c0-5-4-9-9-9h-7v-3c0-1.7-1.3-3-3-3   s-3,1.3-3,3v3H21c-5,0-9,4-9,9s4,9,9,9h23h4h39h20.3C108.9,127,110.3,125.7,110.3,124z M48,121h-4H21c-1.7,0-3-1.3-3-3s1.3-3,3-3   h27c1.7,0,3,1.3,3,3S49.7,121,48,121z"/><circle cx="122.3" cy="124" r="3"/></g></svg>