<svg xmlns="http://www.w3.org/2000/svg" viewBox="0 0 939.41 145.9"><title>one-logo-white</title><g id="Layer_2" data-name="Layer 2"><g id="Layer_2-2" data-name="Layer 2"><path d="M70.54,145.9a70.64,70.64,0,0,0,28.18-5.48,67.07,67.07,0,0,0,22.34-15.26,69.46,69.46,0,0,0,14.8-23.1,77.81,77.81,0,0,0,5.3-29,77.85,77.85,0,0,0-5.31-29.16,69.44,69.44,0,0,0-14.79-23.1A67.39,67.39,0,0,0,98.71,5.48,70.68,70.68,0,0,0,70.63,0,70.87,70.87,0,0,0,42.44,5.49,67.34,67.34,0,0,0,20.11,20.75,69.55,69.55,0,0,0,5.3,43.85,77.82,77.82,0,0,0,0,72.91a77.94,77.94,0,0,0,5.3,29.14,69.52,69.52,0,0,0,14.82,23.1,67.06,67.06,0,0,0,22.33,15.27A70.45,70.45,0,0,0,70.54,145.9Zm0-3.12c-12.8,0-24.38-3.07-34.41-9.13A64.84,64.84,0,0,1,12.35,108.6,73.83,73.83,0,0,1,3.77,73c0-13.32,2.89-25.36,8.6-35.8A65,65,0,0,1,36.14,12.27c10-6.07,21.64-9.15,34.44-9.15S95,6.18,105,12.23a64.33,64.33,0,0,1,23.68,25c5.61,10.4,8.47,22.44,8.47,35.74,0,13.14-2.86,25.13-8.47,35.64A64.05,64.05,0,0,1,105,133.65c-10,6.06-21.63,9.13-34.44,9.13Z" style="fill:#fff"/><path d="M115,104.28a1.91,1.91,0,0,0-1-1.45c-.12-.09-.1-.22-.12-.36h0c-.08-.16-.13-.34-.32-.36,0,0,0,0,0,0h-.12s0,0,0,0,0,0,.07,0h.07a7.33,7.33,0,0,1-.37-1.52.8.8,0,0,0-.24-.68c-.22-.25-.56-.46-.61-.7a6.9,6.9,0,0,1-.09-1.57c0-.28.13-.63-.23-.83a2.51,2.51,0,0,0,0-.67,5.8,5.8,0,0,1-.43-2.54s.05-.07,0-.06a1.06,1.06,0,0,0,0-.47c.09-.84.14-1.68.18-2.53V90.4c0-.57,0-1.14,0-1.72a2.63,2.63,0,0,0-2.22-2.57c-.87-.1-1.73-.32-2.59-.47a1.78,1.78,0,0,0-.69,0h0A7,7,0,0,1,104,84.09c-.18-.11,0-.52-.2-.49h0l-1.18-.48-.24-.23h0c-.24-.08-.18-.38-.37-.49,0,0,0,0,0,.06l0,0v0h0V82.2a2,2,0,0,0,.11-1.06V79.79l0,0c.25-1-.8-1.41-1-2.26-.15.27.14.53-.09.75l-.47-.37s0,0,0,0a.37.37,0,0,1-.09-.31.24.24,0,0,0,0-.08,1,1,0,0,0-.76-1.14h0l-.36-.23h0l0,0c-.17-.29-.25-.65-.59-.82l-.1-.1,0,0c-.23-.3,0-.7-.23-1a.58.58,0,0,1-.13.14s0-.06,0-.1V74l0,0,.07,0,0,0a.83.83,0,0,0-.12-1.16.28.28,0,0,0-.39,0l.26.29L98.3,73s0,.09,0,.13a2.54,2.54,0,0,1-1.65-.58.25.25,0,0,0-.24.12s0,0,0,0a.93.93,0,0,0,0-.13h-.12c-.2-.21-.46-.08-.7-.09v.09h-.07a.21.21,0,0,0,.07-.12,1.23,1.23,0,0,1-1.07-.61,6.7,6.7,0,0,0-1.41-1.64v0c-.82-.75-1.41-1.73-2.28-2.46a5.55,5.55,0,0,0-1.38-1l-1.28-1h0a2.5,2.5,0,0,0-.36-1l-.06,0h0c0-.18-.11-.28-.22-.4a13.34,13.34,0,0,1-1.25-1.54c-.9-1.22-2-2.27-2.84-3.47a8.39,8.39,0,0,0-1-1.09,20.05,20.05,0,0,1-3.76-4,.81.81,0,0,0-.94-.45.85.85,0,0,0-1,.14,15.08,15.08,0,0,1-1.51,1l.08.06h-.1a5.53,5.53,0,0,0-1.31.76l.08,0H74l-.68.37s0,0,0,0h0a1.15,1.15,0,0,1-.6-.13,6.2,6.2,0,0,0-.81-.81.4.4,0,0,0-.07-.13l-.12-.12a.47.47,0,0,1-.09-.06c-.14-.3-.51-.41-.65-.72a22.74,22.74,0,0,0-2-3.11,8.14,8.14,0,0,0-1.08-1.53l0,0,0,0a.63.63,0,0,0-.35-.48s0,0,0,0l0,0-.36-.58v0l0,0c0-.2.07-.43-.11-.59,0-.13,0-.27-.13-.35a.39.39,0,0,0-.34-.25c-.16-.37-.39-.61-.83-.46a14.48,14.48,0,0,1-1.41-1.3c0-.22-.18-.34-.3-.47a6,6,0,0,1-1.24-1.64v0l0,0,.36-.24a.21.21,0,0,0-.22-.16h0v-.07L62.67,43h0c-.15-.24-.18-.55-.47-.7,0,0,0,0-.07,0l0,0h.09a.63.63,0,0,0-.36-.6h0a2.6,2.6,0,0,1-.68-.1h0l-1-1.41L60,40h0c-.75-1-1.35-2-2.18-2.94v0s0,0,0,0l-2.24-2.76L55.46,34h0a1.79,1.79,0,0,0-.13-.32C55,33,54.26,32.6,53.82,32c-.32-.42-.45-.95-.93-1.21l0,0c-.31-.26-.69-.43-.84-.85-.08-.22-.26-.22-.45-.22a3.85,3.85,0,0,0-1.08-1l-.06-.07-.36-.31h0a.24.24,0,0,0,0-.12A.57.57,0,0,1,50,28c-.4-.43-.68-1-1.34-1.09l-.57-.36h0s0,0,0,0c0-.37-.26-.53-.51-.72-1.1-.68-2.23-1.3-3.39-1.87a2.19,2.19,0,0,0-.68-.39h0c.08-.14.26-.05.35-.15-.47-.28-1.09-.22-1.53-.61a.45.45,0,0,0-.45,0c-.24.17-.48.09-.72.09a5.38,5.38,0,0,0-1.79.11,3.24,3.24,0,0,0-1.33.31l.09.07H38a.39.39,0,0,0-.32.1v.12h0a.15.15,0,0,0,0-.13,4.44,4.44,0,0,0-1.39.35.59.59,0,0,0-.69.09c-.14.1-.07.13,0,.14l-.42.34a.22.22,0,0,0,0,.08l-1.84,1.36,0,0-.39.34-.06.09a10.41,10.41,0,0,0-1.66,1.59.47.47,0,0,0-.23.35l0,0a11.56,11.56,0,0,0-1.85,2.5c-.17.23-.51.34-.47.73a.05.05,0,0,1,0,0,.31.31,0,0,0,0-.08c-.28,0-.34.23-.34.49a1.15,1.15,0,0,0-.23.82l.07-.11a.17.17,0,0,1-.06.11v.14s0,0,0,0l-.71,1.77h0L27,36.37A3.37,3.37,0,0,0,26.61,38v0c0,.06,0,.12,0,.18a3.84,3.84,0,0,0,.09.68h0a.87.87,0,0,1-.29.62,4.52,4.52,0,0,0-.52.77l.1,0h-.16a6.07,6.07,0,0,0,.23,3.19l.05,0s0,0,0,0c0,.18-.3.13-.24.36-.3.74-.24.84.47.92h.11a.56.56,0,0,1,.05.08.43.43,0,0,1-.24.55l-.05,0a.48.48,0,0,0-.11.67c0,.38.33.59.49.89l0,0a1.83,1.83,0,0,0,0,.57,20,20,0,0,0-.13,2.57c0,1.82.34,3.63.24,5.45v.06c.35,2.35.53,4.72.84,7.08a8.11,8.11,0,0,0,.15,1.63c0,.11,0,.21,0,.31A14.07,14.07,0,0,0,28.36,67l-.06,0-.05.17a1.62,1.62,0,0,0,.19,1.4,3.34,3.34,0,0,1,.1.43,5.51,5.51,0,0,1,.32,1c.64,1.39,1.21,2.8,1.94,4.13.26.45.25,1,.72,1.36h0a4.87,4.87,0,0,0,1.16,2.14s0,0,0,0a2.78,2.78,0,0,0,.25.62c.56.83,1.14,1.64,1.71,2.46,0,.06-.18.1,0,.17a3.36,3.36,0,0,0,.54.26l0-.06s0,0,0,0l.21.2s0,0,0,0l.16.24h0c0,.41.38.6.68.83a1.26,1.26,0,0,0,.58.37l0,0h0l.57.49a.18.18,0,0,0,.05-.07h0s0,0,0,0l-.06.06.26.24,0,0c.52.43,1.25.44,1.76.9,0,0,0,0,0,0h0a1.13,1.13,0,0,0,.83.6.18.18,0,0,0-.05-.07l.05,0,.92.48a3.51,3.51,0,0,0,1.41.72h0c.2.3.6.3.84.55h0c.1.25.32.3.55.37v0l.13.12a1.9,1.9,0,0,0,1.2.68s0,0-.05,0l.05,0c.33,0,.59.26.92.26a.49.49,0,0,0,.31.21,5.41,5.41,0,0,0,.9,0h2.24c0,.11.11.12.19.12l.14,0H49.9c.43.42.91.25,1.38.11h.64a0,0,0,0,0,0,0h.33a11.32,11.32,0,0,0,2,.13l-.13-.13h0s.11.08.11.12a12.23,12.23,0,0,0,2.08.36,1.69,1.69,0,0,0,.86.13h0a12,12,0,0,0,2.47.22,1.74,1.74,0,0,0,.71.12c.1.12.22.1.35.13h0l.2.34h0c0,.13,0,.33.18.33.72.09.81.83,1.26,1.2v0a8.16,8.16,0,0,0,1.52,1.64l.71.73h0l.7.61.12.12.11.1h0a4.33,4.33,0,0,0,.82.94,4.18,4.18,0,0,0,.81.63,5.42,5.42,0,0,0,1.08.67.41.41,0,0,0,.34.09v0c.16.15.38.09.58.15a1.4,1.4,0,0,0,.72.18v0a0,0,0,0,1,0,0h.36a2.73,2.73,0,0,0,1.74,0h.72a1.25,1.25,0,0,0,.85-.1,2.14,2.14,0,0,0,1.64-.57h0c.38-.12.77-.37,1.14,0a1.29,1.29,0,0,0,.62.68l0,.08s.06.1.09.16l.22.87h0a14.32,14.32,0,0,0,.26,2.06l.08.23c-.34.3-.26.62-.1,1a4.57,4.57,0,0,0,.45,1.16v0l.25.69,0,.06,0-.06a3.47,3.47,0,0,0,.91,1.47s0,0,0,.06a8.32,8.32,0,0,0,1,1.31l0,0v0h0l.48,1c0,.06.08.11.11.16a1.21,1.21,0,0,0-.16-.16.87.87,0,0,0,.48.7,1.33,1.33,0,0,0-.09-.21l.14.21a30.85,30.85,0,0,0,2.17,2.41c0,.07.09.12.13.19A2.83,2.83,0,0,0,84.3,112a1,1,0,0,0,.26.57,3.58,3.58,0,0,0,.23.65,4,4,0,0,1,.61,1.36s0,0,0,0l0,0c0,1.21.8,2.1,1.28,3.07,0,0,0,0,0,0h0a1,1,0,0,0,.14.43,11.28,11.28,0,0,0,1.7,2.13c.49.53.9,1.25,1.8,1.21h0c.53.31,1.27.21,1.65.82a2.65,2.65,0,0,1,.81.44l0,0h0a.23.23,0,0,0,.24.13h0a2,2,0,0,0,1.28.21v0c.29-.29.86-.4.86-.88a5,5,0,0,0-.1-2.31.53.53,0,0,0-.08-.32,1.24,1.24,0,0,1,.11-.63,2,2,0,0,0-.18-1.7c-.18-.34-.55-.61-.73-1-.35-.72-.71-1.41-1.09-2.11l-.11,0h0v0l-.1-.46,0,0h0a2.46,2.46,0,0,0-.94-1.4s0,0,0,0h0l-.44-.25h0l-.36-.48h0c-.21-.53-.75-.81-1.05-1.27H90s0,0,.06-.05c-.33-.18-.28-.54-.41-.82h0a1.05,1.05,0,0,0-.5-.54c-.21-.1-.18-.36-.34-.49h0l-.59-.78a.15.15,0,0,1,0,.09.24.24,0,0,0,0-.12,8.32,8.32,0,0,0-1.06-1.08.91.91,0,0,0-.53-.44s0,0,0,0c-.21-.12-.37-.41-.69-.34l0-.08a.22.22,0,0,1,0-.08l0,0c.06-.11-.06-.14,0-.36h0c.08,0,.35.18.19,0s-.12-.48-.3-.65l-.26-.23-.44-.23h0V104l-.87-1.21c0-.18.28.12.28-.18.53-.11.57-.24.21-.68a1.07,1.07,0,0,0-.35-.25v0c-.4-.3-.57-.84-1.07-1h0a.22.22,0,0,0-.2-.12h0l-.23-.12a.74.74,0,0,0-.54-.49c-.07-.15-.12-.28-.24-.29a.36.36,0,0,1-.1.15.44.44,0,0,0,0-.19,14,14,0,0,0-1.38-1.06v0l-1.29-1.07h0a2,2,0,0,1-.45-.93h0c0-.2.08-.42-.11-.58h-.14l-.06,0,0,0v0l0,0a.11.11,0,0,0,.13,0A.86.86,0,0,1,79,95a5,5,0,0,0,.56-.8,3,3,0,0,0,1-1.13h0l.56-1a1.68,1.68,0,0,0,.17-.42,3.19,3.19,0,0,1-.13.44A2.06,2.06,0,0,0,81.63,91h0c-.11-.29.26-.55,0-.84h0v0l0-.55h0a.05.05,0,0,0,0,0V89a1.64,1.64,0,0,0,0-.73h0c.2-.1.47-.13.47-.45a5.2,5.2,0,0,0,0-1.42h0a1.14,1.14,0,0,0,0-.58,12,12,0,0,0-.31-2.73.53.53,0,0,1,0-.53h0a6.08,6.08,0,0,1,1.83,1.35,6.76,6.76,0,0,0,1.24,1.21L86.79,87a3.11,3.11,0,0,0,.9,1.19l.06-.06,0-.08h0a.31.31,0,0,1,0,.13l.41.43.17.07v0a1.08,1.08,0,0,0,.37.42h0l0,0,.35.48v0l0,0c.16.3-.17.61,0,.9,0,0,0,0,0,0l.24.37h0a1.36,1.36,0,0,0,.7,1.15h0c.08.14.35.14.35.35h0a.36.36,0,0,0,.24.45l.44.28h0c0,.46,0,.91.48,1.17a.21.21,0,0,1,0-.14l.26.31c.21.09.4.13.52,0-.12.21-.39.06-.55.17.35.47.65,1,1.26,1.19a4.44,4.44,0,0,0,1.19,2l0,0h0l0,0a.51.51,0,0,0,.25.34l.09.18v0c0,.14,0,.32.21.25,0,0,0,0,0,0v0a28.26,28.26,0,0,1,2,3.66A10,10,0,0,0,98,104.22l.09,0,.73,1.39.32.83s0,0,.07,0a1.21,1.21,0,0,0-.2.09.6.6,0,0,0,.2.41c0-.07.08-.12.14-.16v0c.35.45.92.46,1.32.78a2.36,2.36,0,0,0,.7.46s.07,0,.1,0v0h.14a.33.33,0,0,0-.14,0h-.27l-.69-.39a1.67,1.67,0,0,0,.83.65l.14.14a3.78,3.78,0,0,0,2.2.5.14.14,0,0,0,.14,0h0l.11.13,0,0,.13,0h0a.65.65,0,0,0,.74-.28,7.29,7.29,0,0,0,1.31-1.91,0,0,0,0,0,0,0c.36-.33.39-.67,0-1a.6.6,0,0,1-.24-.48l0,0s0,0,0,0c0-.17,0-.34-.1-.48l-.37-1.16h0a0,0,0,0,0,0,0l-.82-2.33v0a6.64,6.64,0,0,0-.44-1.3s0,0,0-.05a2,2,0,0,0-.24-.79.91.91,0,0,0-.21-.48s0,0,0,0l0,0-.17-.46a.65.65,0,0,0,0-.2,4.78,4.78,0,0,1-.13-.74c0-.32-.16-.72.23-1,0,0,0,0,0,0h0l.1.11h0s0,0,0,0A25.73,25.73,0,0,1,105,99.27a1.51,1.51,0,0,0,.81,1l.11.11h0a2.69,2.69,0,0,0,.83,1.06l.36.46c0,.29.2.43.41.55a.25.25,0,0,1,0,.07l.45.47c.31.47.48,1.07,1.1,1.33l0-.05h0l2.56,1.54h0a4.31,4.31,0,0,0,1,.84s0,0,0,0h0l.21.22a5.39,5.39,0,0,0,1,1.16H114l.2,0a.43.43,0,0,1,0-.07v0c.51,0,.67-.36.67-.7a2.46,2.46,0,0,1,.51-1.3V105C115.29,104.73,115,104.56,115,104.28ZM60.43,67.67l-.06,0v0c-.37,0-.5.4-.74.61-.4.31-.65.84-1.24.91v-.06h0c-.06-.16.22-.48-.18-.48l-.06-.2h0a.61.61,0,0,0-.52-.45v0c-.33-.24-.75,0-1.09-.23h0a1.62,1.62,0,0,0-1-.18c-.39.06-.78,0-.93-.34s-.73-.44-.73-.86c0-.62-.3-.65-.78-.56a1.4,1.4,0,0,1-.5-.06h-.08s0,0,0,0a4.76,4.76,0,0,0-1.85-.93c-.72-.13-.86-.44-.86-1.17a.8.8,0,0,0-.21-.72A3,3,0,0,1,49,61.72c.21-.3-.23-.37-.23-.58h0s0,0,0-.06a15.2,15.2,0,0,0-.47-1.85,3.5,3.5,0,0,0-.12-1.11l-.07,0h.1c0-.24-.26-.39-.35-.5s-.2-.24-.15-.39a8.73,8.73,0,0,0,.17-2.39c0-.21-.06-.46.26-.54l.28.24A18.91,18.91,0,0,0,50.94,57a.65.65,0,0,0,.13.16l.92.78,1.14,1h0a.71.71,0,0,0,.33.31l5.3,5.69,0,0a1.38,1.38,0,0,0,.24.3,3.2,3.2,0,0,0,.43.47,1,1,0,0,1,.15.25,3.23,3.23,0,0,0,1.07,1s0,0,.07,0l.1.22A1.45,1.45,0,0,1,60.43,67.67Z" style="fill:#fff"/><path d="M164.41,58.69a40.79,40.79,0,0,1,9.25-13.84,43.68,43.68,0,0,1,14-9.19,47.44,47.44,0,0,1,34.87,0,43.85,43.85,0,0,1,14,9.19,40.79,40.79,0,0,1,9.25,13.84A46,46,0,0,1,249,76.22a46.55,46.55,0,0,1-3.26,17.52,41.49,41.49,0,0,1-9.19,14,42.66,42.66,0,0,1-13.9,9.25,48.07,48.07,0,0,1-35.11,0,42.5,42.5,0,0,1-14-9.25,41.49,41.49,0,0,1-9.19-14,46.55,46.55,0,0,1-3.26-17.52A46,46,0,0,1,164.41,58.69Zm15.6,33A29.21,29.21,0,0,0,220,102.38a27.86,27.86,0,0,0,10.16-10.69,31.93,31.93,0,0,0,3.68-15.47,32.72,32.72,0,0,0-3.62-15.54A27,27,0,0,0,220.07,50a28.71,28.71,0,0,0-15-3.87A28.28,28.28,0,0,0,190.22,50,27.71,27.71,0,0,0,180,60.68a31.76,31.76,0,0,0-3.75,15.54A31.41,31.41,0,0,0,180,91.69Z" style="fill:#da4286"/><path d="M338.83,33.91v88.84l-61.77-61v56.81H263V29.68l61.77,61V33.91Z" style="fill:#da4286"/><path d="M371.7,33.91v84.61h-14V33.91Zm-5.19,0h42.66V46.48H366.51Zm0,33.12h40.24V79.36H366.51Zm0,38.92h42.66v12.57H366.51Z" style="fill:#da4286"/><path d="M419,33.91h51.13V40.2H447.85v78.32H441.2V40.2H419Z" style="fill:#fff"/><path d="M477.94,118.52h-6.28V62.92h6.28ZM493,68.3a10.13,10.13,0,0,0-3.81-.67,9.29,9.29,0,0,0-6.58,2.3A13,13,0,0,0,479,76.09a31.89,31.89,0,0,0-1.09,8.59H475a31.6,31.6,0,0,1,2.06-11.79,20.39,20.39,0,0,1,5.62-8.16,12,12,0,0,1,7.91-3,15.58,15.58,0,0,1,5,.79,11.54,11.54,0,0,1,4.29,2.6l-3.5,5.19A16.46,16.46,0,0,0,493,68.3Z" style="fill:#fff"/><path d="M513.42,108.73a11.55,11.55,0,0,0,5.07,4.17,18.41,18.41,0,0,0,15.71-.79,16.42,16.42,0,0,0,6.35-6.4A20.7,20.7,0,0,0,543,95.31l1.45,5.32a17.6,17.6,0,0,1-3.14,10.76,19.27,19.27,0,0,1-7.86,6.28,23.71,23.71,0,0,1-9.55,2.06,21.5,21.5,0,0,1-9.06-2,16.07,16.07,0,0,1-9.67-15.65q0-8.1,5.62-12.81t15.29-4.71a30.44,30.44,0,0,1,9.36,1.27,29.81,29.81,0,0,1,6.47,2.83,21.88,21.88,0,0,1,3.63,2.66v4A30.27,30.27,0,0,0,536.74,91,34,34,0,0,0,527,89.63,22.71,22.71,0,0,0,518.86,91a11.61,11.61,0,0,0-5.38,4,11.42,11.42,0,0,0-1.94,6.89A12,12,0,0,0,513.42,108.73Zm-4.78-40.37A51.42,51.42,0,0,1,516.8,64a30.4,30.4,0,0,1,12.39-2.24A25.66,25.66,0,0,1,540,63.77a15.58,15.58,0,0,1,6.89,5.92,17.46,17.46,0,0,1,2.41,9.43v39.4H543V80a14.79,14.79,0,0,0-.73-4.65,11.2,11.2,0,0,0-2.35-4,11.32,11.32,0,0,0-4.42-2.9,18.45,18.45,0,0,0-6.76-1.09,25.82,25.82,0,0,0-7.38,1,27.36,27.36,0,0,0-5.62,2.29,34,34,0,0,0-3.92,2.54Z" style="fill:#fff"/><path d="M599.05,71.62q-3.15-4-9.91-4A15.75,15.75,0,0,0,574.94,76a17.85,17.85,0,0,0-2.12,8.71v33.84h-6.28V62.92h6.28v11.6a20.15,20.15,0,0,1,6.95-9.42,17.89,17.89,0,0,1,10.82-3.39q8.7,0,13.3,5.5T608.48,82v36.5h-6.29V82.74Q602.19,75.61,599.05,71.62Z" style="fill:#fff"/><path d="M630.72,108.25a15.27,15.27,0,0,0,5.25,4.1,17,17,0,0,0,7.56,1.58,12.27,12.27,0,0,0,8.16-2.6,8.91,8.91,0,0,0,3.08-7.19,8.32,8.32,0,0,0-1.93-5.62,15.56,15.56,0,0,0-5.08-3.75A58.23,58.23,0,0,0,641,92.05a78.39,78.39,0,0,1-7.49-3.26,17,17,0,0,1-6-4.9,12.86,12.86,0,0,1-2.35-8A12.71,12.71,0,0,1,627.51,68a14,14,0,0,1,6.17-4.66,22.08,22.08,0,0,1,8.16-1.51,21.84,21.84,0,0,1,8.46,1.57,21,21,0,0,1,6.4,4.11,18.68,18.68,0,0,1,4.11,5.68l-5.19,3.15a19.24,19.24,0,0,0-5.44-6.29,14.62,14.62,0,0,0-9.07-2.66,11.56,11.56,0,0,0-7,2.06,7,7,0,0,0-2.84,6,8,8,0,0,0,1.81,5.38A13.18,13.18,0,0,0,638,84.31c2,.89,4.15,1.74,6.4,2.54a67.46,67.46,0,0,1,8.28,3.75,19.33,19.33,0,0,1,6.17,5.07,12.24,12.24,0,0,1,2.36,7.74,15.18,15.18,0,0,1-5,11.79c-3.34,3-7.68,4.53-13,4.53a23.16,23.16,0,0,1-10.1-2.06,19.28,19.28,0,0,1-6.89-5.32,22.69,22.69,0,0,1-3.8-6.76l5.07-2.9A21.79,21.79,0,0,0,630.72,108.25Z" style="fill:#fff"/><path d="M698.16,62.92v5.92H672.05V62.92Zm-2-32.45a8.58,8.58,0,0,0-4.11-1A6.89,6.89,0,0,0,687.22,31a9.42,9.42,0,0,0-2.6,4.47,24,24,0,0,0-.84,6.65v76.39h-6.29V41.41a26.17,26.17,0,0,1,1.63-9.73,13.51,13.51,0,0,1,4.9-6.29,14.45,14.45,0,0,1,8.34-2.24,12.72,12.72,0,0,1,4.65.79,13.88,13.88,0,0,1,3.51,2,12,12,0,0,1,2.35,2.42l-3.5,5.08A9.18,9.18,0,0,0,696.11,30.47Z" style="fill:#fff"/><path d="M709.4,75.73a27.5,27.5,0,0,1,10.21-10.27,30.16,30.16,0,0,1,29.13,0A27.43,27.43,0,0,1,759,75.73a29.55,29.55,0,0,1,3.75,15A29.64,29.64,0,0,1,759,105.65,27.3,27.3,0,0,1,748.74,116a30.16,30.16,0,0,1-29.13,0,27.37,27.37,0,0,1-10.21-10.33,29.64,29.64,0,0,1-3.75-14.93A29.55,29.55,0,0,1,709.4,75.73Zm5.56,27a21.32,21.32,0,0,0,7.92,8.15,23,23,0,0,0,22.6,0,21.36,21.36,0,0,0,7.91-8.15,26,26,0,0,0,0-23.88,21.25,21.25,0,0,0-7.91-8.21,23,23,0,0,0-22.6,0A21.32,21.32,0,0,0,715,78.75a24.22,24.22,0,0,0-2.9,12A24.22,24.22,0,0,0,715,102.69Z" style="fill:#fff"/><path d="M783.25,118.52H777V62.92h6.29Zm15-50.22a10.13,10.13,0,0,0-3.81-.67,9.31,9.31,0,0,0-6.59,2.3,13,13,0,0,0-3.56,6.16,31.5,31.5,0,0,0-1.09,8.59h-2.9a31.6,31.6,0,0,1,2-11.79A20.39,20.39,0,0,1,788,64.73a12,12,0,0,1,7.92-3,15.56,15.56,0,0,1,5,.79,11.5,11.5,0,0,1,4.3,2.6l-3.51,5.19A16.67,16.67,0,0,0,798.3,68.3Z" style="fill:#fff"/><path d="M886.71,118.52h-6.28V82.74q0-7.24-2.79-11.18t-8.58-3.93a13.26,13.26,0,0,0-7.43,2.18,15.08,15.08,0,0,0-5.26,6,19.47,19.47,0,0,0-1.93,8.83v33.84h-6.29V82.74q0-7.24-2.78-11.18t-8.58-3.93a13.26,13.26,0,0,0-7.43,2.18,15.08,15.08,0,0,0-5.26,6,19.47,19.47,0,0,0-1.93,8.83v33.84h-6.29V62.92h6.29V74.16a19.85,19.85,0,0,1,6.4-9.18,15.4,15.4,0,0,1,9.67-3.27,14.33,14.33,0,0,1,9.91,3.45,17.17,17.17,0,0,1,5.2,9.36,21.09,21.09,0,0,1,7-9.42,16.71,16.71,0,0,1,10.15-3.39,15.58,15.58,0,0,1,8.83,2.42,15,15,0,0,1,5.5,7A28.9,28.9,0,0,1,886.71,82Z" style="fill:#fff"/><path d="M909,108.25a15.27,15.27,0,0,0,5.25,4.1,17,17,0,0,0,7.56,1.58,12.25,12.25,0,0,0,8.16-2.6,8.91,8.91,0,0,0,3.08-7.19,8.27,8.27,0,0,0-1.93-5.62A15.56,15.56,0,0,0,926,94.77a58.23,58.23,0,0,0-6.77-2.72,78.39,78.39,0,0,1-7.49-3.26,16.88,16.88,0,0,1-6-4.9,12.8,12.8,0,0,1-2.36-8A12.65,12.65,0,0,1,905.75,68a13.94,13.94,0,0,1,6.16-4.66,22.08,22.08,0,0,1,8.16-1.51,21.84,21.84,0,0,1,8.46,1.57,21.12,21.12,0,0,1,6.41,4.11,18.64,18.64,0,0,1,4.1,5.68l-5.19,3.15a19.24,19.24,0,0,0-5.44-6.29,14.62,14.62,0,0,0-9.07-2.66,11.56,11.56,0,0,0-7,2.06,7,7,0,0,0-2.84,6,8,8,0,0,0,1.82,5.38,13.06,13.06,0,0,0,4.83,3.44q3,1.34,6.41,2.54a68,68,0,0,1,8.27,3.75,19.33,19.33,0,0,1,6.17,5.07,12.24,12.24,0,0,1,2.36,7.74,15.18,15.18,0,0,1-5,11.79c-3.34,3-7.68,4.53-13,4.53a23.16,23.16,0,0,1-10.1-2.06,19.28,19.28,0,0,1-6.89-5.32,22.69,22.69,0,0,1-3.8-6.76l5.07-2.9A21.79,21.79,0,0,0,909,108.25Z" style="fill:#fff"/></g></g></svg>