<svg height="300px" width="300px" fill="#000000" xmlns="http://www.w3.org/2000/svg" xmlns:xlink="http://www.w3.org/1999/xlink" version="1.1" x="0px" y="0px" viewBox="0 0 128 128" style="enable-background:new 0 0 128 128;" xml:space="preserve"><g><path d="M94.2,21.7c1.4,1,3.2,0.7,4.2-0.7c1-1.4,0.6-3.2-0.7-4.2C87.9,9.7,76.2,6,64,6C32,6,6,32,6,64c0,12.2,3.7,23.9,10.9,33.7   c0.5,0.9,1.5,1.3,2.4,1.3c0.6,0,1.2-0.2,1.7-0.5c1.4-1,1.7-2.9,0.7-4.2C15.4,85.4,12,74.9,12,64c0-27.7,21.7-50.4,49-51.9v9   c-7,0.5-13.8,2.7-19.7,6.4c-1.5,0.8-1.9,2.7-1,4.1c0.8,1.5,2.7,1.9,4.1,1C50.3,28.9,57,27,64,27c19.4,0,35.3,15,36.9,34h-9   c-0.3-2.9-1.1-5.7-2.2-8.4c-0.7-1.5-2.5-2.2-4-1.5s-2.2,2.5-1.5,4c1.3,2.8,1.9,5.8,1.9,8.9c0,12.1-9.9,22-22,22s-22-9.9-22-22   c0-12.1,9.9-22,22-22c3,0,5.9,0.6,8.6,1.7c1.5,0.6,3.3-0.1,3.9-1.6s-0.1-3.3-1.6-3.9C71.4,36.7,67.8,36,64,36   c-14.4,0-26.3,11-27.8,25h-9c0.5-5.9,2.3-11.6,5.5-16.7c0.8-1.4,0.4-3.2-1-4.1c-1.4-0.8-3.2-0.4-4.1,1C23.3,48,21,55.9,21,64   c0,22.7,17.7,41.3,40,42.9v9c-9.9-0.6-19.1-3.9-27.2-9.6c-1.4-1-3.2-0.6-4.2,0.7c-1,1.4-0.6,3.2,0.7,4.2   C40.1,118.3,51.8,122,64,122c32,0,58-26,58-58c0-12.2-3.7-23.9-10.7-33.8c-1-1.4-2.9-1.7-4.2-0.7c-1.4,1-1.7,2.9-0.7,4.2   c6.3,8.9,9.7,19.4,9.7,30.3c0,27.7-21.7,50.4-49.1,51.9v-9c7-0.5,13.8-2.7,19.7-6.4c1.5-0.8,1.9-2.7,1-4.1c-0.8-1.5-2.7-1.9-4.1-1   C77.7,99.1,71,101,64,101c-19.4,0-35.3-15-36.9-34h9C37.7,81,49.6,92,64,92s26.3-11,27.8-25h9c-0.5,5.9-2.3,11.5-5.6,16.6   c-0.8,1.4-0.4,3.2,1,4.1c0.5,0.4,1.1,0.5,1.6,0.5c1,0,2-0.5,2.6-1.4C104.7,80,107,72.1,107,64c0-22.7-17.7-41.3-40-42.9v-9   C76.8,12.7,86.2,16,94.2,21.7z"/><circle cx="64" cy="64" r="8"/></g></svg>